HIERARCHY
ROOT Hips
{
  OFFSET 41.8797 101.404 187.467
  CHANNELS 6 Xposition Yposition Zposition Zrotation Xrotation Yrotation
  JOINT RightUpLeg
  {
    OFFSET -8.9458 -8.66707 0.101652
    CHANNELS 3 Zrotation Xrotation Yrotation
    JOINT RightLeg
    {
      OFFSET 0 -44.4227 1.3727
      CHANNELS 3 Zrotation Xrotation Yrotation
      JOINT RightFoot
      {
        OFFSET 0.253549 -42.0924 -1.46059
        CHANNELS 3 Zrotation Xrotation Yrotation
        JOINT RightToes
        {
          OFFSET 0.04 -4.41509 8.4991
          CHANNELS 3 Zrotation Xrotation Yrotation
          End Site
          {
            OFFSET -0.08 -0.137448 9.77979
          }
        }
      }
    }
  }
  JOINT Spine
  {
    OFFSET 0 11.8905 0
    CHANNELS 3 Zrotation Xrotation Yrotation
    JOINT Spine1
    {
      OFFSET 0 25.6574 0.127663
      CHANNELS 3 Zrotation Xrotation Yrotation
      JOINT HEad
      {
        OFFSET 0 8.73416 0.011341
        CHANNELS 3 Zrotation Xrotation Yrotation
        End Site
        {
          OFFSET -0.29 12.7742 2.51395
        }
      }
      JOINT LeftShoulder1
      {
        OFFSET 8.99 -0.362252 -0.22
        CHANNELS 3 Zrotation Xrotation Yrotation
        JOINT LeftArm
        {
          OFFSET 10.2827 -0.00338 0.322123
          CHANNELS 3 Zrotation Xrotation Yrotation
          JOINT LeftForeArm
          {
            OFFSET 32.7669 0.099144 -1.42434
            CHANNELS 3 Zrotation Xrotation Yrotation
            JOINT LeftHand
            {
              OFFSET 27.5643 0.085362 1.02216
              CHANNELS 3 Zrotation Xrotation Yrotation
              End Site
              {
                OFFSET 16.7443 -0.6 1.50291
              }
            }
          }
        }
      }
      JOINT RightShoulder
      {
        OFFSET -8.99 -0.362252 -0.22
        CHANNELS 3 Zrotation Xrotation Yrotation
        JOINT RightArm
        {
          OFFSET -10.2827 -0.00338 0.322123
          CHANNELS 3 Zrotation Xrotation Yrotation
          JOINT RightForeArm
          {
            OFFSET -32.8971 0.099144 -1.42434
            CHANNELS 3 Zrotation Xrotation Yrotation
            JOINT RightHand
            {
              OFFSET -27.4921 0.085362 1.02216
              CHANNELS 3 Zrotation Xrotation Yrotation
              End Site
              {
                OFFSET -16.6312 -0.6 1.50291
              }
            }
          }
        }
      }
    }
  }
  JOINT LeftUpLeg
  {
    OFFSET 8.9458 -8.66707 0.101652
    CHANNELS 3 Zrotation Xrotation Yrotation
    JOINT LeftLeg
    {
      OFFSET 0 -44.4227 1.3727
      CHANNELS 3 Zrotation Xrotation Yrotation
      JOINT LeftFoot
      {
        OFFSET -0.253549 -42.0924 -1.46059
        CHANNELS 3 Zrotation Xrotation Yrotation
        JOINT LeftToes
        {
          OFFSET -0.04 -4.41509 8.4991
          CHANNELS 3 Zrotation Xrotation Yrotation
          End Site
          {
            OFFSET 0.08 -0.047448 9.77979
          }
        }
      }
    }
  }
}
MOTION
Frames:	17
Frame Time:	0.0166667
41.8797 101.404 187.467 -2.31634 0.0151988 175.609 -13.8889 -4.8866 -2.67552 17.4198 46.0647 -17.6854 22.332 -10.5324 1.12095 0.0462048 0.000533964 0.662642 -0.0965006 3.01219 -0.857952 -5.97535 21.6366 1.17058 2.08284 -7.0707 11.7101 -3.97569e-016 -3.18055e-015 -3.97569e-016 -89.583 -41.4799 -5.23103 -18.1727 15.3898 -24.7186 0.368473 9.90896 -0.00117926 -11.1332 -0.114662 5.38515 98.9249 -23.7795 24.8512 16.8897 15.3137 20.4551 -0.369625 9.91382 0.00119886 6.46672 -34.0765 3.52947 -18.9607 35.9843 38.3172 -3.62756 -11.3532 -0.146611 -8.04601e-012 1.72004e-011 2.41849e-011 
41.5027 101.477 186.148 -2.74305 -0.0470754 175.769 -14.8435 -6.49637 -3.66383 17.3493 49.2327 -18.8787 22.5947 -8.15361 0.656886 -0.0572147 7.71338 0.515676 -0.950984 3.15226 -0.871018 -6.5351 21.7069 1.2461 2.38009 -7.54088 11.68 -1.98785e-016 -3.18055e-015 -1.19271e-015 -89.3449 -40.7741 -5.50886 -18.3777 15.5016 -25.5286 0.368473 9.90896 -0.00117926 -11.0727 -0.109276 5.33007 98.9602 -24.3333 23.9901 16.8281 15.1248 19.3085 -0.369625 9.91382 0.00119886 5.74554 -33.5632 2.96717 -19.7865 36.2999 38.6371 -3.68062 -12.367 -0.178663 0.664647 -0.107815 0.2212 
41.1392 101.505 184.844 -3.16397 -0.103207 175.918 -15.8021 -8.24382 -4.71478 17.3548 52.5422 -20.0676 22.7992 -5.72117 0.18508 -0.541395 14.146 -0.369069 -1.83804 3.28893 -0.867134 -7.0446 21.8035 1.31262 2.59981 -7.99881 11.6108 -3.97569e-016 -6.36111e-015 7.95139e-016 -89.126 -40.0418 -5.81882 -18.5671 15.63 -26.4411 0.368473 9.90896 -0.00117926 -11.0114 -0.103604 5.25148 98.9219 -24.8418 23.1362 16.7894 14.9404 18.2228 -0.369625 9.91382 0.00119886 5.10588 -33.0837 2.4762 -20.7009 36.6916 39.0102 -3.74135 -13.4527 -0.214185 1.18728 -0.172433 0.39637 
40.8113 101.41 183.586 -3.57373 -0.144786 176.029 -16.7233 -10.391 -6.04314 17.1031 56.4054 -20.7915 22.732 -3.03124 -0.343633 -2.13037 16.6726 -3.69984 -2.83222 3.42119 -0.809556 -7.40103 21.9776 1.35136 2.56661 -8.41262 11.4152 -1.19271e-015 6.36111e-015 3.97569e-016 -88.9553 -39.214 -6.164 -18.7328 15.8181 -27.7045 0.368473 9.90896 -0.00117926 -10.9733 -0.0988991 5.10598 98.7142 -25.2226 22.2918 16.8393 14.7866 17.2895 -0.369625 9.91382 0.00119886 4.67031 -32.7131 2.1105 -21.9208 37.2848 39.6214 -3.8163 -14.7666 -0.258624 1.23893 -0.0782933 0.420711 
40.5071 101.254 182.35 -3.96716 -0.172336 176.13 -17.6201 -12.7054 -7.25432 16.8907 60.3117 -21.5198 22.6653 -0.486404 -0.847942 -3.87283 17.9041 -7.48063 -3.84119 3.5385 -0.740643 -7.71103 22.1807 1.38246 2.4928 -8.82925 11.1953 2.18663e-015 0 -0 -88.8421 -38.3914 -6.67504 -18.8372 16.0042 -28.9843 0.368473 9.90896 -0.00117926 -10.8823 -0.0902686 4.92974 98.4082 -25.5378 21.503 16.921 14.6517 16.4666 -0.369625 9.91382 0.00119886 4.33013 -32.3775 1.95534 -23.1573 38.0066 40.1408 -3.91423 -16.1279 -0.30917 1.23321 0.000689019 0.424492 
40.2224 101.069 181.12 -4.33735 -0.187694 176.246 -18.4122 -15.0735 -7.94936 17.0429 63.8233 -22.7335 22.8717 1.68733 -1.28785 -4.94063 20.3057 -10.0589 -4.79632 3.62961 -0.694762 -8.06506 22.3731 1.42252 2.57428 -9.31552 11.0273 -1.98785e-015 3.18055e-015 -1.19271e-015 -88.7972 -37.6297 -7.52202 -18.8544 16.1494 -29.9753 0.368473 9.90896 -0.00117926 -10.6162 -0.069285 4.73412 97.9957 -25.8243 20.8255 16.9997 14.5259 15.7136 -0.369625 9.91382 0.00119886 4.00758 -32.0322 2.18531 -24.1042 38.8709 40.1796 -4.06029 -17.3893 -0.365974 1.54115 -0.110479 0.522888 
39.9566 100.861 179.902 -4.68397 -0.17853 176.344 -19.0407 -17.4551 -8.29552 17.6752 67.033 -24.2309 23.036 3.16506 -1.58782 -5.69828 22.0066 -12.121 -5.69962 3.69559 -0.659228 -8.40907 22.5791 1.46348 2.69287 -9.77895 10.9029 1.59028e-015 3.18055e-015 -3.97569e-016 -88.8206 -36.982 -8.5726 -18.7796 16.2774 -30.83 0.368473 9.90896 -0.00117926 -10.3369 -0.0477896 4.55012 97.6103 -26.0829 20.2333 17.0697 14.4253 15.1186 -0.369625 9.91382 0.00119886 3.72743 -31.6607 2.58432 -24.9465 39.7926 40.0481 -4.20954 -18.6071 -0.424948 1.96351 -0.292982 0.656389 
39.7099 100.64 178.696 -5.00996 -0.131689 176.366 -19.4046 -19.803 -8.25666 18.9953 69.9826 -26.0362 22.7467 3.34149 -1.60403 -6.40688 21.695 -13.7096 -6.52927 3.73294 -0.631869 -8.71769 22.8165 1.50347 2.76285 -10.1371 10.8654 -3.97569e-016 -3.18055e-015 3.97569e-016 -88.9435 -36.5454 -9.73779 -18.5858 16.402 -31.6317 0.368473 9.90896 -0.00117926 -10.2334 -0.039628 4.44122 97.455 -26.3285 19.7287 17.1031 14.3717 14.8027 -0.369625 9.91382 0.00119886 3.51845 -31.2292 3.03262 -25.8048 40.6842 39.9352 -4.32847 -19.7838 -0.483054 2.45517 -0.487636 0.814777 
39.4759 100.421 177.499 -5.29872 -0.0514885 176.406 -19.5543 -22.0208 -8.01681 20.7043 72.419 -27.63 22.5398 2.83455 -1.48912 -7.08403 20.2398 -14.8109 -7.28827 3.74415 -0.615501 -8.99539 23.065 1.54047 2.88766 -10.4258 10.8352 -1.98785e-015 0 7.95139e-016 -89.1471 -36.2433 -11.0949 -18.3054 16.5042 -32.2848 0.368473 9.90896 -0.00117926 -10.1028 -0.0304185 4.32127 97.3091 -26.5562 19.2813 17.1352 14.3415 14.6259 -0.369625 9.91382 0.00119886 3.30651 -30.7456 3.42458 -26.6149 41.5394 39.8322 -4.40631 -20.9326 -0.536808 2.9236 -0.690538 0.965363 
39.2458 100.218 176.31 -5.5325 0.077603 176.566 -19.5475 -23.9507 -7.77318 21.9326 74.0871 -27.5337 23.0144 2.11155 -1.37289 -7.6194 18.0211 -15.4425 -7.98245 3.73112 -0.605789 -9.22157 23.3274 1.56889 3.18659 -10.6633 10.7343 -8.82781e-032 -3.18055e-015 -1.59028e-015 -89.4271 -36.0137 -12.7108 -17.9563 16.5676 -32.7107 0.368473 9.90896 -0.00117926 -9.76242 -0.00719724 4.09937 96.9644 -26.7805 18.8483 17.1926 14.3143 14.4829 -0.369625 9.91382 0.00119886 3.01848 -30.1997 3.59798 -27.355 42.3309 39.7923 -4.39975 -22.086 -0.579125 3.21905 -0.882116 1.05765 
39.0276 100.039 175.12 -5.71956 0.209308 176.771 -19.4138 -25.7067 -7.47983 22.864 75.1066 -26.9049 23.6277 1.0175 -1.18579 -8.12546 15.0875 -15.8287 -8.58161 3.69212 -0.622002 -9.44565 23.5515 1.59744 3.51913 -10.8217 10.6005 1.49089e-015 0 1.98785e-015 -89.7659 -35.8942 -14.5237 -17.5601 16.6047 -32.9403 0.368473 9.90896 -0.00117926 -9.33916 0.0205008 3.85328 96.584 -26.956 18.4671 17.2675 14.2961 14.3931 -0.369625 9.91382 0.00119886 2.70566 -29.6178 3.61634 -28.0359 43.0295 39.8268 -4.37141 -23.1887 -0.617211 3.46485 -1.05026 1.13479 
38.8328 99.8875 173.917 -5.86757 0.294293 176.978 -19.195 -27.3754 -7.12006 24.2691 75.516 -27.4545 24.0183 -0.512367 -0.882857 -8.68092 11.4519 -16.1446 -9.05651 3.62472 -0.692846 -9.75852 23.6915 1.64329 3.78557 -10.8985 10.4391 -2.28602e-015 3.18055e-015 -7.95139e-016 -90.1623 -35.9534 -16.5386 -17.1367 16.6228 -32.9743 0.368473 9.90896 -0.00117926 -8.863 0.049172 3.62177 96.2778 -27.0161 18.2053 17.3605 14.2841 14.3271 -0.369625 9.91382 0.00119886 2.38323 -29.0401 3.42393 -28.7075 43.5836 40.0537 -4.38057 -24.192 -0.657197 3.77236 -1.16639 1.23686 
38.6427 99.7823 172.711 -5.95705 0.357038 177.19 -18.9278 -28.8792 -6.81575 25.504 75.2635 -28.0236 24.2658 -2.28167 -0.519892 -9.29715 7.58317 -16.5662 -9.41069 3.53291 -0.785643 -10.0151 23.7309 1.67533 3.98595 -10.8352 10.2699 6.95746e-016 0 -5.96354e-016 -90.598 -36.0323 -18.642 -16.7034 16.6134 -32.8258 0.368473 9.90896 -0.00117926 -8.44271 0.0736379 3.43088 96.0028 -27.0381 17.9312 17.4733 14.2829 14.3272 -0.369625 9.91382 0.00119886 2.08962 -28.4117 3.21719 -29.2332 44.0309 40.205 -4.39533 -25.1092 -0.695464 4.02881 -1.26031 1.3225 
38.4345 99.7475 171.508 -5.9606 0.399888 177.397 -18.695 -30.1612 -6.7214 26.147 74.2888 -27.9156 24.2437 -4.24183 -0.108811 -10.2218 3.86349 -17.5904 -9.63342 3.41763 -0.868854 -10.0432 23.599 1.65359 4.04078 -10.5139 10.1222 1.59028e-015 3.18055e-015 7.95139e-016 -91.0271 -35.9899 -20.6991 -16.2805 16.5597 -32.4611 0.368473 9.90896 -0.00117926 -8.2221 0.0860837 3.3425 95.7016 -27.0965 17.4598 17.6227 14.302 14.4709 -0.369625 9.91382 0.00119886 1.85628 -27.6867 3.21349 -29.4275 44.4155 39.953 -4.37841 -25.9496 -0.725858 4.17048 -1.38714 1.36622 
38.2315 99.7698 170.315 -5.90983 0.439937 177.6 -18.466 -31.2442 -6.75343 26.2322 72.676 -27.4439 24.1804 -6.01299 0.268175 -10.9875 0.598261 -18.27 -9.73798 3.28561 -0.967789 -10.0153 23.4127 1.62182 4.09231 -10.1098 9.97439 -2.68359e-015 6.36111e-015 -0 -91.4302 -35.892 -22.723 -15.8733 16.4875 -32.0223 0.368473 9.90896 -0.00117926 -8.12642 0.0908853 3.28787 95.5208 -27.1308 17.0155 17.7644 14.3245 14.6229 -0.369625 9.91382 0.00119886 1.68225 -26.8824 3.27681 -29.4476 44.6773 39.5675 -4.40473 -26.6765 -0.761851 4.16137 -1.44237 1.36052 
38.0562 99.8504 169.141 -5.83298 0.509314 177.798 -18.2323 -32.1194 -6.89286 25.5853 70.4735 -26.7129 24.2976 -7.11857 0.505847 -10.6969 -1.64534 -17.3579 -9.73416 3.1412 -1.10399 -10.0796 23.2851 1.61857 4.29107 -9.77128 9.80398 2.88238e-015 0 1.59028e-015 -91.7903 -35.7767 -24.7221 -15.4832 16.4143 -31.6171 0.368473 9.90896 -0.00117926 -8.16027 0.0881396 3.22677 95.6804 -27.1237 16.798 17.8397 14.3359 14.649 -0.369625 9.91382 0.00119886 1.59309 -25.9687 3.33598 -29.4299 44.7338 39.2578 -4.56535 -27.2602 -0.821084 3.92617 -1.25532 1.28728 
37.8888 99.9706 167.999 -5.71381 0.565307 177.981 -17.9793 -32.8259 -7.0882 24.7015 67.7201 -25.9738 24.4041 -7.80125 0.652831 -10.1131 -3.51019 -16.1513 -9.62215 2.99244 -1.2572 -10.1369 23.1576 1.61898 4.52734 -9.46121 9.64021 3.97569e-015 0 -1.98785e-016 -92.0673 -35.5928 -26.5868 -15.1474 16.3553 -31.3138 0.368473 9.90896 -0.00117926 -8.22899 0.0828903 3.13542 95.9078 -27.0287 16.6988 17.9093 14.3391 14.6236 -0.369625 9.91382 0.00119886 1.55392 -25.0402 3.42048 -29.2866 44.6944 38.91 -4.77673 -27.6888 -0.885756 3.52078 -1.07959 1.15288 
